<?xml version="1.0" encoding="utf-8"?>
<!-- Generator: Adobe Illustrator 25.2.1, SVG Export Plug-In . SVG Version: 6.00 Build 0)  -->
<svg version="1.1" id="Ksmith-Mask" xmlns="http://www.w3.org/2000/svg" xmlns:xlink="http://www.w3.org/1999/xlink" x="0px"
	 y="0px" viewBox="0 0 1366 768" enable-background="new 0 0 1366 768" xml:space="preserve">
<g id="Ksmith-Name">
	<path id="K" d="M260.87,420.43l-0.25-0.74c-1.15,3.12-2.11,6.32-2.89,9.59c-0.78,3.28-1.17,6.64-1.17,10.09
		c0,3.03,0.45,6.01,1.35,8.92c0.9,2.91,2.42,5.47,4.55,7.69c2.38,2.38,5.14,4.02,8.3,4.92c3.16,0.9,6.38,1.35,9.66,1.35
		c1.72,0,3.42-0.1,5.1-0.31c1.68-0.21,3.34-0.43,4.98-0.68c0.41-0.08,0.57-0.35,0.49-0.8c-0.08-0.45-0.33-0.68-0.74-0.68
		c-3.28,0.16-6.62,0.2-10.02,0.12c-3.4-0.08-6.66-0.74-9.78-1.97c-3.2-1.23-5.68-3.18-7.44-5.84c-1.76-2.67-2.85-5.68-3.26-9.04
		c-0.41-3.12-0.35-6.21,0.18-9.29c0.53-3.08,1.25-6.09,2.15-9.04c1.06-3.2,2.23-6.35,3.51-9.47c1.27-3.12,2.64-6.23,4.12-9.35
		c5.9-12.3,13.16-23.7,21.77-34.19c8.61-10.5,18.08-20.21,28.41-29.15c5.25-4.59,10.64-8.94,16.17-13.04
		c5.54-4.1,11.25-8,17.16-11.69c6.4-4.1,13.04-7.81,19.93-11.13c6.89-3.32,14.1-5.68,21.65-7.07c1.56-0.25,3.22-0.51,4.98-0.8
		c1.76-0.29,3.55-0.43,5.35-0.43c1.8,0,3.57,0.17,5.29,0.49c1.72,0.33,3.28,0.98,4.67,1.97c1.48,1.07,2.52,2.34,3.14,3.81
		c0.62,1.48,0.96,3.06,1.05,4.74c0.08,1.68-0.04,3.38-0.37,5.1c-0.33,1.72-0.66,3.32-0.98,4.8c-2.05,7.87-4.67,15.48-7.87,22.82
		c-3.2,7.34-6.56,14.66-10.09,21.96c-2.63,5.49-5.29,10.97-7.99,16.42c-2.71,5.46-5.41,10.93-8.12,16.42
		c-1.4,1.15-2.83,2.24-4.31,3.26c-1.48,1.03-2.95,2.07-4.43,3.14c-3.44,2.38-6.91,4.67-10.39,6.89c-3.49,2.21-7.16,4.14-11.01,5.78
		c-1.15,0.49-2.44,0.98-3.87,1.48c-1.44,0.49-2.93,0.94-4.49,1.35c-1.4-1.07-2.85-2.05-4.37-2.95c-1.52-0.9-2.99-1.52-4.43-1.84
		c-1.44-0.33-2.81-0.29-4.12,0.12c-1.31,0.41-2.46,1.39-3.44,2.95c-0.25,0.41-0.33,0.84-0.25,1.29c0.08,0.45,0.29,0.84,0.61,1.17
		c1.97,1.89,4.24,3.06,6.83,3.51c2.58,0.45,5.19,0.47,7.81,0.06c2.05,1.72,4.06,3.46,6.03,5.23c1.97,1.76,3.94,3.55,5.9,5.35
		l6.27,5.9l-7.38,14.76c-0.9,1.88-1.78,3.81-2.64,5.78c-0.86,1.97-1.74,3.89-2.64,5.78c-0.25,0.49-0.12,0.88,0.37,1.17
		c0.49,0.29,0.9,0.18,1.23-0.31c2.29-3.94,4.55-7.81,6.77-11.62c2.21-3.81,4.39-7.73,6.52-11.75l0.74-1.11
		c2.62,2.38,5.31,4.74,8.06,7.07c2.75,2.34,5.55,4.57,8.43,6.7c4.02,3.03,8.16,5.86,12.42,8.49c4.26,2.62,8.69,5,13.28,7.13
		c4.43,2.05,9.02,3.77,13.78,5.17c4.75,1.39,9.59,2.13,14.51,2.21c1.97,0,4.26-0.18,6.89-0.55c2.62-0.37,5.06-1.04,7.32-2.03
		c2.25-0.98,4.16-2.34,5.72-4.06c1.56-1.72,2.29-3.9,2.21-6.52c0-0.9-0.41-1.41-1.23-1.54c-0.82-0.12-1.35,0.22-1.6,1.04
		c-0.74,2.21-1.99,3.98-3.75,5.29c-1.76,1.31-3.75,2.28-5.97,2.89c-2.21,0.62-4.49,0.96-6.83,1.05c-2.34,0.08-4.49,0.04-6.46-0.12
		c-4.92-0.49-9.72-1.62-14.39-3.38c-4.67-1.76-9.19-3.79-13.53-6.09c-9.1-4.76-17.67-10.5-25.71-17.22
		c-1.89-1.56-3.71-3.12-5.47-4.67c-1.76-1.56-3.55-3.16-5.35-4.8l9.96-19.19l9.23-18.45c2.95-2.21,5.86-4.49,8.73-6.83
		c2.87-2.34,5.74-4.69,8.61-7.07c5.82-5,11.46-10.15,16.91-15.44c5.45-5.29,10.89-10.72,16.3-16.3
		c5.08-5.25,10.06-10.54,14.94-15.87c4.88-5.33,9.94-10.58,15.19-15.74c2.87-2.87,5.8-5.62,8.79-8.24c2.99-2.62,6.13-5.12,9.41-7.5
		c3.28-2.38,6.64-4.51,10.09-6.4c3.44-1.89,6.89-3.81,10.33-5.78c0.33-0.16,0.43-0.41,0.31-0.74c-0.12-0.33-0.35-0.45-0.68-0.37
		c-3.2,0.74-6.27,1.85-9.23,3.32s-5.82,3.07-8.61,4.8c-2.87,1.89-5.62,3.86-8.24,5.9c-2.63,2.05-5.21,4.18-7.75,6.4
		c-5.25,4.59-10.25,9.39-15.01,14.39c-4.76,5-9.55,10.05-14.39,15.13c-8.2,8.53-16.52,16.85-24.97,24.97
		c-8.45,8.12-17.3,15.83-26.57,23.12c1.8-3.61,3.59-7.17,5.35-10.7c1.76-3.52,3.51-7.09,5.23-10.7c3.69-7.71,7.28-15.42,10.76-23.12
		c3.48-7.71,6.42-15.66,8.79-23.86c0.41-1.56,0.82-3.18,1.23-4.86c0.41-1.68,0.72-3.38,0.92-5.1c0.2-1.72,0.23-3.42,0.06-5.1
		c-0.17-1.68-0.57-3.3-1.23-4.86c-1.4-3.12-3.57-5.29-6.52-6.52s-6.03-1.85-9.23-1.85c-3.94,0-7.83,0.37-11.68,1.11
		c-3.86,0.74-7.67,1.74-11.44,3.01c-3.77,1.27-7.44,2.75-11.01,4.43c-3.57,1.68-7.03,3.46-10.39,5.35
		c-6.56,3.69-12.92,7.69-19.06,11.99s-12.18,8.84-18.08,13.59c-11.24,9.1-21.61,19.09-31.12,29.95
		c-9.51,10.87-17.59,22.78-24.23,35.73C265.95,407.48,263.17,413.96,260.87,420.43z M339.35,420.07l-0.12-0.12
		c-1.8-0.16-3.32-0.57-4.55-1.23c0.66-0.16,1.39-0.1,2.21,0.18C337.7,419.19,338.52,419.57,339.35,420.07z M378.21,409.61l0.25,0.12
		c-2.21,4.43-4.47,8.86-6.77,13.28c-2.3,4.43-4.59,8.86-6.89,13.28c-1.8-1.64-3.59-3.28-5.35-4.92c-1.76-1.64-3.59-3.28-5.47-4.92
		c-1.07-1.07-2.46-2.34-4.18-3.81c3.12-0.9,6.11-2.09,8.98-3.57c2.87-1.48,5.66-3.03,8.36-4.67c4.51-2.79,8.94-5.74,13.28-8.86
		L378.21,409.61z"/>
	<path id="H" d="M489.9,407.64c-2.63,0.82-5.19,1.8-7.69,2.95c-2.5,1.15-5.06,2.17-7.69,3.08c-1.23,0.41-2.46,0.82-3.69,1.23
		c-1.23,0.41-2.46,0.78-3.69,1.11c-0.17,0.08-0.43,0.18-0.8,0.31c-0.37,0.12-0.64,0.14-0.8,0.06c-0.41-0.16-0.57-0.49-0.49-0.98
		c0.08-0.49,0.16-0.9,0.25-1.23l1.11-6.27c0.08-0.66-0.02-1.21-0.31-1.66c-0.29-0.45-0.76-0.68-1.41-0.68
		c-1.64-0.08-3.03,0.39-4.18,1.41c-1.15,1.03-2.26,2.11-3.32,3.26c-1.31,1.4-2.58,2.81-3.81,4.24c-1.23,1.44-2.46,2.85-3.69,4.24
		c-2.54,2.95-4.96,5.86-7.26,8.73c-0.82,0.98-1.62,1.99-2.4,3.01c-0.78,1.03-1.66,1.99-2.64,2.89c0.41-1.15,0.9-2.38,1.48-3.69
		c0.57-1.31,0.94-2.13,1.11-2.46l3.69-9.96l4.43-11.07c2.29-2.62,4.37-5.39,6.21-8.3c1.84-2.91,3.63-5.84,5.35-8.79
		c2.38-4.18,4.67-8.34,6.89-12.48c2.21-4.14,4.39-8.3,6.52-12.48c1.89-3.61,3.71-7.17,5.47-10.7c1.76-3.52,3.59-7.09,5.47-10.7
		c0.41-0.82,0.88-1.7,1.41-2.64c0.53-0.94,0.94-1.91,1.23-2.89c0.29-0.98,0.45-1.97,0.49-2.95c0.04-0.98-0.23-1.93-0.8-2.83
		c-0.57-0.98-1.29-1.43-2.15-1.35c-0.86,0.08-1.7,0.37-2.52,0.86c-1.64,1.07-3.07,2.44-4.3,4.12c-1.23,1.68-2.34,3.34-3.32,4.98
		c-1.64,2.63-3.18,5.33-4.61,8.12c-1.44,2.79-2.85,5.62-4.24,8.49c-3.36,7.05-6.52,14.15-9.47,21.28
		c-2.95,7.13-5.86,14.31-8.73,21.53c-1.4,3.61-2.79,7.18-4.18,10.7c-1.39,3.53-2.79,7.09-4.18,10.7l-3.32,8.12
		c-0.25,0.66-0.55,1.37-0.92,2.15c-0.37,0.78-0.66,1.58-0.86,2.4c-0.2,0.82-0.25,1.6-0.12,2.34s0.51,1.4,1.17,1.97
		c0.66,0.49,1.35,0.58,2.09,0.25c1.31-0.66,2.48-1.52,3.51-2.58c1.03-1.06,1.99-2.17,2.89-3.32c2.13-2.79,4.43-5.58,6.89-8.36
		c2.21-2.79,4.47-5.41,6.77-7.87c0.57-0.66,1.13-1.31,1.66-1.97c0.53-0.66,1.13-1.31,1.78-1.97c0.33-0.41,0.63-0.8,0.92-1.17
		c0.29-0.37,0.63-0.72,1.05-1.05c-0.17,0.66-0.29,1.33-0.37,2.03c-0.08,0.7-0.17,1.42-0.25,2.15c-0.17,0.74-0.21,1.46-0.12,2.15
		c0.08,0.7,0.37,1.37,0.86,2.03c0.49,0.66,1.13,1.07,1.91,1.23c0.78,0.17,1.58,0.18,2.4,0.06c0.82-0.12,1.64-0.33,2.46-0.61
		c0.82-0.29,1.56-0.51,2.21-0.68c1.89-0.57,3.71-1.19,5.47-1.84c1.76-0.66,3.55-1.35,5.35-2.09c1.64-0.66,3.18-1.37,4.61-2.15
		c1.43-0.78,2.77-1.78,4-3.01c0.33-0.33,0.39-0.66,0.18-0.98C490.61,407.68,490.31,407.56,489.9,407.64z M453.37,392.02h-0.25
		c3.36-8.2,6.78-16.38,10.27-24.54c3.48-8.16,7.44-16.09,11.87-23.8c0.82-1.39,1.64-2.75,2.46-4.06c0.82-1.31,1.76-2.54,2.83-3.69
		c0.33-0.33,0.7-0.7,1.11-1.11c0.41-0.41,0.74-0.7,0.98-0.86l0.37-0.37c0.25,1.15,0.04,2.32-0.61,3.51
		c-0.66,1.19-1.23,2.24-1.72,3.14l-2.95,5.9c-1.23,2.38-2.46,4.8-3.69,7.26s-2.46,4.88-3.69,7.26c-2.71,5.33-5.43,10.6-8.18,15.81
		C459.41,381.67,456.48,386.86,453.37,392.02l-0.37,0.74L453.37,392.02z"/>
	<path id="A" d="M529.13,407.64l-0.12,0.37c-1.89,1.07-3.61,2.38-5.17,3.94c-1.56,1.56-3.16,3.04-4.8,4.43
		c-1.8,1.48-3.63,2.91-5.47,4.3c-1.85,1.4-3.75,2.71-5.72,3.94c-0.9,0.58-1.84,1.15-2.83,1.72c-0.98,0.57-2.05,0.98-3.2,1.23
		c-0.9,0.17-1.7,0.14-2.4-0.06c-0.7-0.2-1.01-0.84-0.92-1.91c0.08-0.49,0.2-1,0.37-1.54c0.16-0.53,0.33-1.05,0.49-1.54
		c0.41-1.15,0.82-2.25,1.23-3.32c0.41-1.07,0.9-2.13,1.48-3.2c0.49-0.98,1.05-1.95,1.66-2.89c0.62-0.94,1.13-1.95,1.54-3.01
		c0.08-0.16,0.12-0.41,0.12-0.74c0.16-0.16,0.33-0.49,0.49-0.98c0.16-0.41,0.06-0.8-0.31-1.17s-0.76-0.47-1.17-0.31h-0.37
		c-0.17-1.15-0.49-2.25-0.98-3.32c-0.49-1.07-1.07-1.93-1.72-2.58c-1.07-0.98-2.21-1.15-3.44-0.49c-1.23,0.66-2.3,1.35-3.2,2.09
		c-1.4,1.15-2.67,2.46-3.81,3.94c-1.15,1.48-2.17,3-3.07,4.55c-0.74,1.23-1.39,2.56-1.97,4c-0.57,1.44-0.74,2.89-0.49,4.37
		c0.08,0.41,0.29,0.72,0.61,0.92c0.33,0.21,0.7,0.31,1.11,0.31c0.9,0,1.68-0.22,2.34-0.68c0.66-0.45,1.31-0.96,1.97-1.54
		c0.9-0.66,1.8-1.31,2.71-1.97c0.9-0.66,1.84-1.31,2.83-1.97l3.32-1.84c-0.98,1.64-1.83,3.36-2.52,5.17
		c-0.7,1.8-1.29,3.53-1.78,5.17c-0.33,1.07-0.53,2.15-0.61,3.26c-0.08,1.11,0.33,2.11,1.23,3.01c0.9,0.9,1.95,1.39,3.14,1.48
		c1.19,0.08,2.36-0.04,3.51-0.37c2.62-0.82,5.17-2.11,7.63-3.87c2.46-1.76,4.75-3.46,6.89-5.1c2.29-1.8,4.59-3.73,6.89-5.78
		c1.15-0.98,2.28-1.97,3.38-2.95c1.11-0.98,2.11-2.09,3.01-3.32c0.41-0.57,0.35-1.09-0.18-1.54
		C530.26,407.38,529.7,407.32,529.13,407.64z M496.04,411.33h-0.37c-1.4,0.82-2.83,1.76-4.31,2.83c-0.25,0.17-0.57,0.43-0.98,0.8
		c-0.41,0.37-0.82,0.76-1.23,1.17c0.25-0.66,0.55-1.27,0.92-1.85c0.37-0.57,0.72-1.11,1.05-1.6c1.39-2.29,2.99-4.35,4.8-6.15
		c0.41-0.41,0.84-0.82,1.29-1.23c0.45-0.41,0.92-0.78,1.41-1.11c0.16-0.08,0.31-0.14,0.43-0.18c0.12-0.04,0.27-0.14,0.43-0.31
		c0.08-0.08,0.2-0.12,0.37-0.12c0.49,0.49,0.92,1.15,1.29,1.97c0.37,0.82,0.68,1.64,0.92,2.46c-1.07,0.49-2.11,1.03-3.14,1.6
		C497.91,410.19,496.95,410.76,496.04,411.33z"/>
	<path id="R" d="M573.41,407.77l0.25,0.12c-2.87,0.17-5.74,0.39-8.61,0.68c-2.87,0.29-5.74,0.6-8.61,0.92l-3.32,0.37
		c-0.25,0-0.55,0.04-0.92,0.12c-0.37,0.08-0.68,0.08-0.92,0c-0.82-0.25-1.13-0.68-0.92-1.29c0.2-0.62,0.35-1.21,0.43-1.78
		c0.16-0.82,0.12-1.52-0.12-2.09c-0.25-0.66-0.68-1.17-1.29-1.54c-0.62-0.37-1.29-0.43-2.03-0.18c-1.15,0.33-2.13,1.13-2.95,2.4
		c-0.82,1.27-1.56,2.36-2.21,3.26c-0.9,1.23-1.8,2.46-2.71,3.69c-0.9,1.23-1.8,2.46-2.71,3.69c-1.56,2.05-3.14,4.18-4.74,6.4
		s-3.38,4.14-5.35,5.78v-1.35l0.37-2.58c0.17-0.74,0.35-1.48,0.55-2.21c0.21-0.74,0.43-1.48,0.68-2.21c0.9-2.71,1.86-5.39,2.89-8.06
		c1.02-2.66,1.99-5.35,2.89-8.06c0.16-0.49,0.04-0.82-0.37-0.98h-0.37c-0.49-0.33-0.94-0.29-1.35,0.12
		c-0.74,0.9-1.31,1.95-1.72,3.14c-0.41,1.19-0.82,2.32-1.23,3.38c-0.57,1.4-1.13,2.75-1.66,4.06c-0.53,1.31-1.05,2.67-1.54,4.06
		c-0.49,1.4-0.94,2.77-1.35,4.12c-0.41,1.35-0.7,2.73-0.86,4.12c-0.16,0.82-0.31,1.78-0.43,2.89c-0.12,1.11,0.02,2.03,0.43,2.77
		c0.57,0.9,1.33,1.19,2.28,0.86c0.94-0.33,1.87-0.9,2.77-1.72c0.9-0.82,1.74-1.7,2.52-2.64c0.78-0.94,1.33-1.62,1.66-2.03
		c2.13-2.62,4.16-5.29,6.09-8c1.93-2.71,3.87-5.41,5.84-8.12c0.41-0.49,0.78-0.98,1.11-1.48c0.33-0.49,0.7-0.94,1.11-1.35
		c0.57-0.66,0.74-0.74,0.49-0.25c-0.25,0.49-0.45,0.94-0.61,1.35c-0.25,1.07-0.17,2.05,0.25,2.95c0.66,1.15,1.58,1.76,2.77,1.84
		c1.19,0.08,2.36,0.04,3.51-0.12c3.44-0.33,6.91-0.66,10.39-0.98c3.48-0.33,6.78-1.11,9.9-2.34c0.41-0.16,0.59-0.49,0.55-0.98
		C574.17,408.01,573.9,407.77,573.41,407.77z M524.95,429.17h0.12H524.95z"/>
	<path id="E" d="M615.11,408.01l0.25-0.25c-1.4,0.25-2.75,0.68-4.06,1.29c-1.31,0.62-2.58,1.25-3.81,1.91
		c-2.71,1.31-5.62,2.54-8.73,3.69c-2.71,0.98-5.56,1.91-8.55,2.77c-2.99,0.86-5.97,1.29-8.92,1.29c-1.64,0-3.08-0.33-4.31-0.98
		c-1.23-0.66-1.84-1.88-1.84-3.69c0-0.98,0.12-1.97,0.37-2.95c1.23,0.25,2.6,0.17,4.12-0.25c1.52-0.41,2.93-1.06,4.24-1.97
		c1.31-0.9,2.34-1.97,3.08-3.2c0.74-1.23,0.94-2.54,0.61-3.94c-0.41-1.39-1.25-2.21-2.52-2.46c-1.27-0.25-2.48-0.12-3.63,0.37
		c-1.4,0.66-2.67,1.54-3.81,2.64c-1.15,1.11-2.17,2.28-3.08,3.51c-0.74,1.15-1.37,2.48-1.91,4c-0.53,1.52-0.8,3.01-0.8,4.49
		c0,1.48,0.31,2.85,0.92,4.12c0.61,1.27,1.7,2.28,3.26,3.01c1.39,0.66,2.85,0.98,4.37,0.98c1.52,0,3.01-0.08,4.49-0.25
		c1.72-0.25,3.44-0.57,5.17-0.98c1.72-0.41,3.4-0.86,5.04-1.35c3.77-1.15,7.63-2.62,11.56-4.43c1.64-0.82,3.32-1.68,5.04-2.58
		c1.72-0.9,3.16-2.13,4.31-3.69c0.25-0.33,0.25-0.61,0-0.86S615.43,407.93,615.11,408.01z M578.33,406.17l-0.12,0.12
		c0.9-1.15,1.97-2.09,3.2-2.83c0.16-0.16,0.45-0.37,0.86-0.62c0.41-0.25,0.74-0.33,0.98-0.25c0.82,0.17,1.09,0.51,0.8,1.05
		c-0.29,0.53-0.55,0.96-0.8,1.29c-0.9,1.15-1.93,1.95-3.07,2.4c-1.15,0.45-2.34,0.88-3.57,1.29
		C577.1,407.81,577.67,406.99,578.33,406.17z"/>
	<path id="E2" d="M656.8,408.01l0.25-0.25c-1.4,0.25-2.75,0.68-4.06,1.29c-1.31,0.62-2.58,1.25-3.81,1.91
		c-2.71,1.31-5.62,2.54-8.73,3.69c-2.71,0.98-5.56,1.91-8.55,2.77c-2.99,0.86-5.97,1.29-8.92,1.29c-1.64,0-3.08-0.33-4.31-0.98
		c-1.23-0.66-1.84-1.88-1.84-3.69c0-0.98,0.12-1.97,0.37-2.95c1.23,0.25,2.6,0.17,4.12-0.25c1.52-0.41,2.93-1.06,4.24-1.97
		c1.31-0.9,2.34-1.97,3.08-3.2c0.74-1.23,0.94-2.54,0.61-3.94c-0.41-1.39-1.25-2.21-2.52-2.46c-1.27-0.25-2.48-0.12-3.63,0.37
		c-1.4,0.66-2.67,1.54-3.81,2.64c-1.15,1.11-2.17,2.28-3.08,3.51c-0.74,1.15-1.37,2.48-1.91,4c-0.53,1.52-0.8,3.01-0.8,4.49
		c0,1.48,0.31,2.85,0.92,4.12c0.61,1.27,1.7,2.28,3.26,3.01c1.39,0.66,2.85,0.98,4.37,0.98c1.52,0,3.01-0.08,4.49-0.25
		c1.72-0.25,3.44-0.57,5.17-0.98c1.72-0.41,3.4-0.86,5.04-1.35c3.77-1.15,7.63-2.62,11.56-4.43c1.64-0.82,3.32-1.68,5.04-2.58
		c1.72-0.9,3.16-2.13,4.31-3.69c0.25-0.33,0.25-0.61,0-0.86S657.13,407.93,656.8,408.01z M620.03,406.17l-0.12,0.12
		c0.9-1.15,1.97-2.09,3.2-2.83c0.16-0.16,0.45-0.37,0.86-0.62c0.41-0.25,0.74-0.33,0.98-0.25c0.82,0.17,1.09,0.51,0.8,1.05
		c-0.29,0.53-0.55,0.96-0.8,1.29c-0.9,1.15-1.93,1.95-3.07,2.4c-1.15,0.45-2.34,0.88-3.57,1.29
		C618.8,407.81,619.37,406.99,620.03,406.17z"/>
	<path id="S" d="M842.78,385.13l0.25-0.74c-0.58-0.16-1.03,0-1.35,0.49c-0.33,0.49-0.33,0.98,0,1.48c0.33,0.49,0.76,0.72,1.29,0.68
		c0.53-0.04,1.09-0.18,1.66-0.43c0.57-0.25,1.13-0.53,1.66-0.86c0.53-0.33,0.96-0.57,1.29-0.74c1.56-0.82,3.09-1.6,4.61-2.34
		c1.52-0.74,3.01-1.56,4.49-2.46c1.48-0.9,2.93-1.82,4.37-2.77c1.43-0.94,2.85-1.91,4.24-2.89c11.23-8.04,21.36-17.3,30.38-27.8
		c2.05-2.38,4.16-4.92,6.33-7.63c2.17-2.71,4.08-5.54,5.72-8.49c1.64-2.95,2.85-6.01,3.63-9.16c0.78-3.16,0.8-6.46,0.06-9.9
		c-0.74-3.77-2.32-6.72-4.74-8.86c-2.42-2.13-5.23-3.69-8.43-4.67c-3.2-0.98-6.58-1.56-10.15-1.72c-3.57-0.16-6.91-0.12-10.02,0.12
		c-7.71,0.49-15.29,1.76-22.75,3.81c-7.46,2.05-14.8,4.51-22.02,7.38c-6.81,2.63-13.47,5.52-19.99,8.67
		c-6.52,3.16-12.98,6.54-19.37,10.15c-12.14,6.81-23.7,14.41-34.69,22.82c-10.99,8.41-20.99,17.94-30.01,28.6
		c-2.13,2.54-4.26,5.21-6.4,8c-2.13,2.79-4.04,5.7-5.72,8.73c-1.68,3.04-2.99,6.19-3.94,9.47c-0.94,3.28-1.33,6.68-1.17,10.21
		c0.16,3.06,0.86,6.02,2.09,8.88c1.23,2.86,3.03,5.35,5.41,7.48c2.13,1.89,4.47,3.36,7.01,4.43c2.54,1.07,5.17,1.85,7.87,2.34
		c3.28,0.58,6.6,0.86,9.96,0.86c3.36,0,6.74-0.18,10.15-0.55c3.4-0.37,6.78-0.86,10.15-1.48c3.36-0.62,6.64-1.29,9.84-2.03
		c7.46-1.64,14.8-3.44,22.02-5.41c7.21-1.97,14.55-3.73,22.02-5.29c3.69-0.74,7.36-1.39,11.01-1.97c3.65-0.57,7.32-0.98,11.01-1.23
		c3.03-0.16,6.15-0.24,9.35-0.24s6.23,0.57,9.1,1.71c1.15,0.41,2.21,0.98,3.2,1.72c0.98,0.74,1.76,1.68,2.34,2.83
		c0.41,0.74,0.7,1.6,0.86,2.58c-8.04,4.1-15.93,8.36-23.68,12.79c-7.75,4.43-15.31,9.22-22.69,14.39c-2.79,1.89-5.54,3.88-8.24,5.97
		s-5.21,4.41-7.5,6.95c-0.66,0.74-1.29,1.56-1.91,2.46c-0.62,0.9-1.11,1.89-1.48,2.95c-0.37,1.06-0.57,2.11-0.61,3.14
		c-0.04,1.02,0.26,2.03,0.92,3.01c0.74,1.15,1.74,1.82,3.01,2.03c1.27,0.2,2.52,0.14,3.75-0.18c1.64-0.41,3.22-0.88,4.74-1.42
		c1.52-0.53,3.05-1.13,4.61-1.78c12.13-4.84,23.12-11.6,32.96-20.29c2.38-2.13,4.67-4.39,6.89-6.76c2.21-2.38,4.34-4.84,6.4-7.38
		c1.56-1.97,3.05-4.08,4.49-6.33c1.43-2.25,2.28-4.65,2.52-7.2c1.31-0.66,3.26-1.64,5.84-2.95c2.58-1.31,5.47-2.73,8.67-4.24
		c3.2-1.52,6.56-3.06,10.09-4.62c3.52-1.57,6.87-3,10.02-4.31c3.16-1.3,6.01-2.41,8.55-3.31c2.54-0.9,4.39-1.39,5.54-1.48
		c0.33,0,0.59-0.14,0.8-0.43c0.2-0.29,0.31-0.57,0.31-0.86c0-0.29-0.1-0.53-0.31-0.74c-0.21-0.2-0.47-0.31-0.8-0.31
		c-1.64,0.17-3.77,0.68-6.4,1.54c-2.63,0.86-5.52,1.89-8.67,3.08c-3.16,1.19-6.44,2.47-9.84,3.84c-3.4,1.37-6.66,2.73-9.78,4.06
		c-3.12,1.33-5.93,2.6-8.43,3.79c-2.5,1.19-4.45,2.11-5.84,2.77c-0.66-2.95-2.05-5.17-4.18-6.67c-2.13-1.5-4.55-2.58-7.26-3.26
		c-2.71-0.68-5.54-1.02-8.49-1.02s-5.58,0.04-7.87,0.12c-7.38,0.4-14.64,1.34-21.77,2.82c-7.13,1.48-14.27,3.17-21.4,5.05
		c-7.22,1.89-14.37,3.69-21.46,5.41c-7.09,1.72-14.33,2.99-21.71,3.81c-2.79,0.33-5.72,0.55-8.79,0.68c-3.07,0.12-6.11,0-9.1-0.37
		c-2.99-0.37-5.86-1.09-8.61-2.15c-2.75-1.07-5.15-2.71-7.2-4.92c-2.63-2.71-4.22-5.68-4.8-8.92c-0.58-3.24-0.51-6.54,0.18-9.9
		c0.7-3.36,1.86-6.64,3.5-9.84c1.64-3.2,3.4-6.07,5.29-8.61c4.1-5.58,8.53-10.84,13.28-15.81c4.75-4.96,9.72-9.7,14.88-14.21
		c10.58-9.1,21.87-17.18,33.89-24.23c12.01-7.05,24.37-13.41,37.08-19.06c6.97-3.12,14.02-5.86,21.16-8.24
		c7.13-2.38,14.43-4.22,21.89-5.54c4.02-0.66,8.06-1.11,12.12-1.35c4.06-0.25,8.14-0.04,12.24,0.62c1.64,0.25,3.26,0.61,4.86,1.11
		c1.6,0.49,3.05,1.15,4.37,1.97c1.31,0.82,2.44,1.84,3.38,3.07c0.94,1.23,1.66,2.71,2.15,4.43c0.9,3.28,0.88,6.52-0.06,9.72
		c-0.94,3.2-2.28,6.19-4,8.98c-1.89,3.03-3.92,5.95-6.09,8.73c-2.17,2.79-4.45,5.49-6.83,8.12c-9.18,10.41-19.39,19.64-30.63,27.67
		c-1.31,0.9-2.63,1.8-3.94,2.71c-1.31,0.9-2.63,1.85-3.94,2.83c-0.66,0.49-1.33,0.98-2.03,1.48c-0.7,0.49-1.41,0.98-2.15,1.48
		c-0.41,0.33-1.15,0.86-2.21,1.6c-1.07,0.74-1.93,1.11-2.58,1.11c0.41,0,0.66-0.18,0.74-0.55
		C843.35,385.56,843.19,385.3,842.78,385.13z M863.81,435.69v0.25c-1.64,2.95-3.65,5.74-6.03,8.36c-2.38,2.62-4.76,5.12-7.13,7.5
		c-4.76,4.67-9.88,8.9-15.38,12.67c-5.5,3.77-11.32,6.97-17.47,9.59c-1.56,0.66-3.1,1.27-4.61,1.84c-1.52,0.57-3.1,1.11-4.74,1.6
		c-0.25,0.08-0.57,0.2-0.98,0.37c-0.41,0.16-0.84,0.31-1.29,0.43c-0.45,0.12-0.88,0.2-1.29,0.25c-0.41,0.04-0.7-0.06-0.86-0.31
		c-0.41-0.41-0.49-0.96-0.25-1.66c0.25-0.7,0.45-1.25,0.62-1.66c0.57-1.4,1.41-2.67,2.52-3.81c1.11-1.15,2.23-2.21,3.38-3.2
		c2.95-2.63,6.05-5.09,9.29-7.38c3.24-2.3,6.54-4.51,9.9-6.64c4.1-2.63,8.22-5.17,12.36-7.63c4.14-2.46,8.34-4.88,12.61-7.26
		l10.33-5.54c-0.17,0.41-0.33,0.78-0.49,1.11C864.14,434.91,863.98,435.28,863.81,435.69z"/>
	<path id="M" d="M992.84,407.89h0.49c0.16-0.08,0.08-0.08-0.25,0c-0.33,0.08-0.57,0.17-0.74,0.25l-2.21,0.74
		c-1.15,0.41-2.26,0.82-3.32,1.23c-1.07,0.41-2.17,0.82-3.32,1.23c-2.63,0.9-5.27,1.8-7.93,2.71c-2.67,0.9-5.31,1.8-7.93,2.71
		l-5.9,1.85l-1.48,0.37h-0.49c-0.57,0-0.98-0.37-1.23-1.11c-0.08-0.25-0.04-0.55,0.12-0.92c0.16-0.37,0.29-0.68,0.37-0.92
		c0.41-1.15,0.86-2.32,1.35-3.51c0.49-1.19,0.98-2.36,1.48-3.5c0.41-0.9,0.8-1.85,1.17-2.83c0.37-0.98,0.14-1.89-0.68-2.71
		c-0.66-0.57-1.41-0.82-2.28-0.74c-0.86,0.08-1.74,0.33-2.64,0.74c-0.9,0.41-1.76,0.92-2.58,1.54c-0.82,0.62-1.48,1.13-1.97,1.54
		c-1.8,1.4-3.53,2.85-5.17,4.37c-1.64,1.52-3.44,2.85-5.41,4c-0.49,0.33-0.9,0.58-1.23,0.74l-0.74,0.37c-0.08-0.57,0-1.21,0.25-1.91
		c0.25-0.7,0.45-1.29,0.62-1.78l2.58-8.86c0.25-0.9-0.02-1.58-0.8-2.03c-0.78-0.45-1.5-0.35-2.15,0.31l-13.65,14.02l-7.01,7.01
		c-0.57,0.66-1.13,1.27-1.66,1.84c-0.53,0.58-1.09,1.15-1.66,1.72l-0.37,0.37c0-0.41,0.08-0.94,0.25-1.6
		c0.66-2.87,1.46-5.74,2.4-8.61c0.94-2.87,1.99-5.7,3.14-8.49c1.06-2.71,2.29-5.41,3.69-8.12c0.33-0.66,0.66-1.33,0.98-2.03
		c0.33-0.7,0.7-1.37,1.11-2.03c0.41-0.74,0.66-1.33,0.74-1.78c0.08-0.45,0.12-1.13,0.12-2.03c0-0.33-0.14-0.57-0.43-0.74
		c-0.29-0.16-0.55-0.16-0.8,0c-0.9,0.49-1.54,0.96-1.91,1.42c-0.37,0.45-0.8,1.13-1.29,2.03l-2.58,5.17
		c-0.74,1.56-1.44,3.12-2.09,4.67c-0.66,1.56-1.31,3.16-1.97,4.8c-0.66,1.72-1.29,3.44-1.91,5.17c-0.62,1.72-1.17,3.49-1.66,5.29
		c-0.41,1.31-0.86,2.77-1.35,4.37c-0.49,1.6-0.49,3.1,0,4.49c0.41,1.15,1.15,1.8,2.21,1.97c1.07,0.17,2,0.01,2.9-0.64
		c1.56-1.15,3.04-2.57,4.36-4.09c1.31-1.52,2.66-2.97,4.06-4.37l11.81-12.18v0.37c-0.25,0.98-0.51,1.97-0.8,2.95
		c-0.29,0.98-0.51,1.97-0.68,2.95c-0.17,1.89,0.35,3.12,1.54,3.69c1.19,0.58,2.56,0.54,4.12-0.12c1.64-0.66,3.16-1.54,4.55-2.64
		c1.39-1.11,2.75-2.23,4.06-3.38c0.66-0.66,1.33-1.27,2.03-1.84c0.7-0.57,1.41-1.15,2.15-1.72c0.16-0.16,0.63-0.51,1.41-1.04
		c0.78-0.53,1.5-1,2.15-1.42c-0.17,0.17-0.25,0.29-0.25,0.37l-1.11,2.95c-0.41,0.9-0.8,1.83-1.17,2.77
		c-0.37,0.94-0.76,1.87-1.17,2.77c-0.41,1.31-0.45,2.56-0.12,3.75c0.33,1.19,1.19,2.07,2.58,2.64c1.15,0.41,2.29,0.45,3.44,0.12
		c1.15-0.33,2.29-0.7,3.44-1.11c7.46-2.46,14.96-5.04,22.51-7.75c0.82-0.33,1.64-0.63,2.46-0.92c0.82-0.29,1.64-0.63,2.46-1.05
		c0.82-0.33,1.39-0.57,1.72-0.74c0.33-0.16,0.53-0.29,0.62-0.37l0.25-0.12c0.41-0.25,0.63-0.57,0.68-0.98
		c0.04-0.41-0.02-0.76-0.18-1.04c-0.17-0.29-0.45-0.51-0.86-0.68C993.66,407.6,993.25,407.64,992.84,407.89z"/>
	<path id="I" d="M1028.26,407.4l-0.37,0.62c-1.07-0.16-2.09,0.02-3.08,0.55c-0.98,0.53-1.93,1-2.83,1.41
		c-1.23,0.66-2.46,1.25-3.69,1.78c-1.23,0.54-2.5,1.09-3.81,1.66c-2.54,1.15-5.06,2.24-7.56,3.26c-2.5,1.03-5.02,2.07-7.56,3.14
		l-3.69,1.48c-0.49,0.25-1.03,0.53-1.6,0.86c-0.57,0.33-1.15,0.58-1.72,0.74c-0.41,0.08-0.68,0.14-0.8,0.18
		c-0.12,0.04-0.27-0.14-0.43-0.55c-0.16-0.25-0.18-0.57-0.06-0.98c0.12-0.41,0.23-0.78,0.31-1.11c0.17-0.66,0.31-1.27,0.43-1.84
		c0.12-0.57,0.27-1.19,0.43-1.85c0.82-2.46,2.01-4.92,3.57-7.38c0.41-0.66,0.88-1.37,1.42-2.15c0.53-0.78,0.47-1.54-0.18-2.28
		c-0.17-0.16-0.35-0.25-0.55-0.25c-0.21,0-0.39,0.08-0.55,0.25c-0.08,0.08-0.12,0.21-0.12,0.37c-0.25,0-0.49,0.17-0.74,0.49
		l-0.37,0.37l-1.11,1.48c-0.41,0.66-0.82,1.29-1.23,1.91c-0.41,0.62-0.78,1.25-1.11,1.91c-1.31,2.79-2.21,5.53-2.71,8.24
		c-0.16,0.98-0.25,2.03-0.25,3.14c0,1.11,0.49,1.99,1.48,2.64c1.07,0.66,2.17,0.76,3.32,0.31c1.15-0.45,2.21-0.88,3.2-1.29
		c2.87-1.23,5.72-2.44,8.55-3.63c2.83-1.19,5.68-2.4,8.55-3.63c1.48-0.66,2.95-1.29,4.43-1.91c1.48-0.62,2.91-1.25,4.3-1.91
		c1.06-0.49,2.34-1.05,3.81-1.66c1.48-0.61,2.5-1.5,3.08-2.64c0.16-0.33,0.18-0.68,0.06-1.04S1028.67,407.48,1028.26,407.4z
		 M1001.69,399.03h-0.12l0.37-0.37c0.16-0.33,0.25-0.57,0.25-0.74l0.74-2.21c0.25-0.66,0.51-1.25,0.8-1.78
		c0.29-0.53,0.59-1.13,0.92-1.78c0.33-0.66,0.18-1.27-0.43-1.84c-0.62-0.57-1.22-0.54-1.78,0.12c-0.91,1.06-1.72,2.3-2.46,3.69
		c-0.74,1.4-1.15,2.79-1.23,4.18c0,0.74,0.41,1.23,1.23,1.48C1000.79,400.02,1001.36,399.77,1001.69,399.03z"/>
	<path id="T" d="M1069.09,407.4l-0.49,0.12c-3.44,2.87-6.79,5.82-10.02,8.86c-3.24,3.03-6.58,5.99-10.02,8.86
		c-1.89,1.56-3.81,3.06-5.78,4.49c-1.97,1.44-3.98,2.85-6.03,4.24c-1.56,0.98-3.16,1.95-4.8,2.89c-1.64,0.94-3.36,1.7-5.17,2.28
		c-0.41,0.16-0.88,0.31-1.42,0.43c-0.53,0.12-1,0.1-1.41-0.06c-0.16-0.08-0.31-0.14-0.43-0.18c-0.12-0.04-0.27-0.23-0.43-0.55
		c-0.49-0.9-0.72-2.01-0.68-3.32c0.04-1.31,0.14-2.46,0.31-3.44c0.33-2.05,0.84-4.04,1.54-5.97c0.7-1.93,1.41-3.83,2.15-5.72
		c0.82-1.97,1.64-3.94,2.46-5.9c0.82-1.97,1.68-3.94,2.58-5.9c1.88-4.18,3.79-8.28,5.72-12.3c1.93-4.02,3.87-8.04,5.84-12.05
		c3.2-0.25,6.4-0.37,9.59-0.37h7.38c0.57,0,1.13,0,1.66,0c0.53,0,1.09,0.04,1.66,0.12c0.08,0,0.29,0.04,0.62,0.12
		c0.33,0.08,0.62,0.18,0.86,0.31s0.43,0.27,0.55,0.43c0.12,0.17,0.02,0.29-0.31,0.37c-0.41,0.17-0.53,0.45-0.37,0.86
		c0.16,0.41,0.45,0.58,0.86,0.49c0.66-0.16,1.17-0.49,1.54-0.98c0.37-0.49,0.47-1.06,0.31-1.72c-0.17-0.82-0.57-1.41-1.23-1.78
		c-0.66-0.37-1.31-0.63-1.97-0.8c-1.48-0.25-2.99-0.35-4.55-0.31c-1.56,0.04-3.08,0.06-4.55,0.06c-1.56,0-3.1,0.02-4.61,0.06
		c-1.52,0.04-3.06,0.1-4.61,0.18h-1.48l0.74-1.48c1.89-3.77,3.75-7.5,5.6-11.19c1.85-3.69,3.67-7.42,5.47-11.19
		c0.66-1.23,1.29-2.46,1.91-3.69c0.62-1.23,1.13-2.5,1.54-3.81c0.25-0.66,0-1.15-0.74-1.48c-0.74-0.33-1.27-0.16-1.6,0.49
		c-2.63,5.49-5.33,10.95-8.12,16.36c-2.79,5.41-5.58,10.82-8.36,16.24c-4.43,0.41-8.69,0.9-12.79,1.48
		c-3.03,0.41-6.15,0.84-9.35,1.29c-3.2,0.45-6.23,1.25-9.1,2.4c-0.66,0.25-0.84,0.64-0.55,1.17c0.29,0.53,0.64,0.72,1.04,0.55
		c2.3-0.16,4.55-0.49,6.77-0.98c2.21-0.49,4.43-0.94,6.64-1.35c2.46-0.41,4.94-0.76,7.44-1.05c2.5-0.29,5.02-0.51,7.56-0.68h1.11
		c-1.97,4.02-3.92,8.02-5.84,11.99c-1.93,3.98-3.79,8.02-5.6,12.12c-1.64,3.77-3.36,7.65-5.17,11.62c-1.8,3.98-2.95,8.06-3.44,12.24
		c-0.16,0.98-0.22,2.09-0.18,3.32c0.04,1.23,0.23,2.38,0.55,3.44c0.33,1.06,0.86,1.97,1.6,2.71c0.74,0.74,1.8,1.11,3.2,1.11
		c1.64,0,3.28-0.37,4.92-1.11c1.64-0.74,3.16-1.52,4.55-2.34c2.13-1.23,4.22-2.56,6.27-4c2.05-1.43,4.06-2.89,6.03-4.37
		c2.46-1.89,4.86-3.79,7.2-5.72c2.34-1.93,4.65-3.92,6.95-5.97c1.89-1.64,3.67-3.32,5.35-5.04c1.68-1.72,3.22-3.61,4.61-5.66
		c0.33-0.49,0.26-0.9-0.18-1.23C1069.93,407.07,1069.5,407.07,1069.09,407.4z"/>
	<path id="H2" d="M1115.96,407.64c-2.63,0.82-5.19,1.8-7.69,2.95c-2.5,1.15-5.06,2.17-7.69,3.08c-1.23,0.41-2.46,0.82-3.69,1.23
		c-1.23,0.41-2.46,0.78-3.69,1.11c-0.17,0.08-0.43,0.18-0.8,0.31s-0.64,0.14-0.8,0.06c-0.41-0.16-0.57-0.49-0.49-0.98
		c0.08-0.49,0.16-0.9,0.25-1.23l1.11-6.27c0.08-0.66-0.02-1.21-0.31-1.66c-0.29-0.45-0.76-0.68-1.41-0.68
		c-1.64-0.08-3.04,0.39-4.18,1.41c-1.15,1.03-2.26,2.11-3.32,3.26c-1.31,1.4-2.58,2.81-3.81,4.24c-1.23,1.44-2.46,2.85-3.69,4.24
		c-2.54,2.95-4.96,5.86-7.26,8.73c-0.82,0.98-1.62,1.99-2.4,3.01c-0.78,1.03-1.66,1.99-2.64,2.89c0.41-1.15,0.9-2.38,1.48-3.69
		c0.57-1.31,0.94-2.13,1.11-2.46l3.69-9.96l4.43-11.07c2.29-2.62,4.37-5.39,6.21-8.3c1.84-2.91,3.63-5.84,5.35-8.79
		c2.38-4.18,4.67-8.34,6.89-12.48c2.21-4.14,4.39-8.3,6.52-12.48c1.88-3.61,3.71-7.17,5.47-10.7c1.76-3.52,3.59-7.09,5.47-10.7
		c0.41-0.82,0.88-1.7,1.42-2.64c0.53-0.94,0.94-1.91,1.23-2.89c0.29-0.98,0.45-1.97,0.49-2.95c0.04-0.98-0.23-1.93-0.8-2.83
		c-0.57-0.98-1.29-1.43-2.15-1.35c-0.86,0.08-1.7,0.37-2.52,0.86c-1.64,1.07-3.08,2.44-4.3,4.12c-1.23,1.68-2.34,3.34-3.32,4.98
		c-1.64,2.63-3.18,5.33-4.61,8.12c-1.44,2.79-2.85,5.62-4.24,8.49c-3.36,7.05-6.52,14.15-9.47,21.28
		c-2.95,7.13-5.86,14.31-8.73,21.53c-1.4,3.61-2.79,7.18-4.18,10.7c-1.39,3.53-2.79,7.09-4.18,10.7l-3.32,8.12
		c-0.25,0.66-0.55,1.37-0.92,2.15c-0.37,0.78-0.66,1.58-0.86,2.4c-0.2,0.82-0.25,1.6-0.12,2.34s0.51,1.4,1.17,1.97
		c0.66,0.49,1.35,0.58,2.09,0.25c1.31-0.66,2.48-1.52,3.5-2.58c1.03-1.06,1.99-2.17,2.89-3.32c2.13-2.79,4.43-5.58,6.89-8.36
		c2.21-2.79,4.47-5.41,6.76-7.87c0.57-0.66,1.13-1.31,1.66-1.97c0.53-0.66,1.13-1.31,1.78-1.97c0.33-0.41,0.63-0.8,0.92-1.17
		c0.29-0.37,0.63-0.72,1.05-1.05c-0.17,0.66-0.29,1.33-0.37,2.03c-0.08,0.7-0.17,1.42-0.25,2.15c-0.17,0.74-0.21,1.46-0.12,2.15
		c0.08,0.7,0.37,1.37,0.86,2.03c0.49,0.66,1.13,1.07,1.91,1.23c0.78,0.17,1.58,0.18,2.4,0.06c0.82-0.12,1.64-0.33,2.46-0.61
		c0.82-0.29,1.56-0.51,2.21-0.68c1.89-0.57,3.71-1.19,5.47-1.84c1.76-0.66,3.55-1.35,5.35-2.09c1.64-0.66,3.18-1.37,4.61-2.15
		c1.43-0.78,2.77-1.78,4-3.01c0.33-0.33,0.39-0.66,0.18-0.98C1116.67,407.68,1116.36,407.56,1115.96,407.64z M1079.42,392.02h-0.25
		c3.36-8.2,6.78-16.38,10.27-24.54c3.48-8.16,7.44-16.09,11.87-23.8c0.82-1.39,1.64-2.75,2.46-4.06c0.82-1.31,1.76-2.54,2.83-3.69
		c0.33-0.33,0.7-0.7,1.11-1.11c0.41-0.41,0.74-0.7,0.98-0.86l0.37-0.37c0.25,1.15,0.04,2.32-0.62,3.51
		c-0.66,1.19-1.23,2.24-1.72,3.14l-2.95,5.9c-1.23,2.38-2.46,4.8-3.69,7.26c-1.23,2.46-2.46,4.88-3.69,7.26
		c-2.71,5.33-5.43,10.6-8.18,15.81C1085.47,381.67,1082.54,386.86,1079.42,392.02l-0.37,0.74L1079.42,392.02z"/>
</g>
<path id="K-swoop-mask" fill="none" stroke="#0000FF" stroke-width="9" stroke-miterlimit="10" d="M290.27,459.79
	c0,4.88-14.84,2.56-19.5,1.11c-4.3-1.34-10.93-8.54-12.85-12.61c-2.03-4.29-1.29-14.38-0.18-19c1.53-6.39,9.11-17.47,11.99-23.37
	c3.9-7.99,11.25-24.3,16.34-31.6c5.05-7.26,17.29-20.18,23.84-26.13c7.04-6.39,21.62-18.69,29.44-24.1
	c7.86-5.44,23.99-15.93,32.78-19.7c6.51-2.8,27.16-8.15,27.16-8.15s12.72-0.65,16.2,1.45c3.89,2.35,4.01,12.27,4.02,16.82
	c0.01,9.38-7.46,25.8-12,34c-3.46,6.25-9.24,19.42-12,26c-4.69,11.19-20.07,48.75-20.07,48.75l-17.53,32.43l-7.98,11.44"/>
<path id="K-finish-mask" fill="none" stroke="#0000FF" stroke-width="10" stroke-miterlimit="10" d="M454.96,465.45
	c0,0,1.49,5.49,0.62,7.01c-1.8,3.12-13.04,6.09-13.04,6.09l-21.4-1.66l-10.64-4.39c0,0-12-6-19-10c-3.84-2.2-18-13-18-13
	l-19.52-23.04c0,0-12.29-10.87-17.4-12.42c-0.99-0.3-4.12,0.12-4.12,0.12s-3.69,3.98-3.08,5.41c1.49,3.46,14.64,3.57,14.64,3.57
	s12.22-7.72,16.28-10.31c3.71-2.36,11.21-7,14.84-9.5c6.69-4.61,19.88-14.15,26.15-19.34c4.2-3.47,12.24-10.83,16.17-14.61
	c6.35-6.13,24.97-24.97,24.97-24.97l17.41-18.24l11.98-11.28l15.99-12.3l18.51-7.75"/>
<path id="H-mask_1_" fill="none" stroke="#0000FF" stroke-width="8" stroke-miterlimit="10" d="M486.33,409.86l-9.66,6.4
	c-1.88,0.74-5.78,1.86-7.69,2.52c-1.16,0.4-4.05,1.47-4.86,0.55c-1.45-1.63,1.52-6.38,1.77-8.55c0.15-1.33,0.1-4.94-1.21-5.23
	c-3.19-0.7-6.27,7.56-8,10.33c-2.79,4.51-13.65,16.24-13.65,16.24s-4.23,5.74-6.4,5.9c-0.98,0.07-3.04-1.25-3.26-2.21
	c-1.06-4.72,4.41-13.87,6.49-18.25c3.82-8.04,13.13-33.1,13.13-33.1l9.13-21.33l7.29-15.02l12.24-17.22c0,0,4.67-0.68,4.67,0.49"/>
<path id="A-mask" fill="none" stroke="#0000FF" stroke-width="8" stroke-miterlimit="10" d="M487.8,411.09l10.09-10.58
	c1.49,0.14,2.13,4.05,3.26,5.04c0.6,0.53,2.67,0.58,2.89,1.35c0.47,1.67-3.81,5.78-3.81,5.78s-11.85,6.46-14.73,6.81
	c-0.86,0.11,15.48-7.41,16.57-3.49c0.63,2.25-5.57,4.75-6.15,7.01c-0.54,2.08,1.68,7.16,3.75,7.75c2.86,0.82,11.13-4.24,11.13-4.24
	s5.28-3.68,6.89-5.1c3.08-2.73,11.32-7.82,11.32-11.93"/>
<polyline id="H-swoop-mask" fill="none" stroke="#0000FF" stroke-width="8" stroke-miterlimit="10" points="486.33,331.38 
	486.64,337.16 478.5,353.5 462.12,381.62 449.32,402.63 "/>
<path id="R-mask" fill="none" stroke="#0000FF" stroke-width="8" stroke-miterlimit="10" d="M572.61,409.79c0,0-8.94,0.23-11.8,0.98
	c-2.7,0.71-8.98,4.13-10.95,2.15c-1.71-1.71,1.7-8.64-0.49-9.66c-2.05-0.95-7.2,5.47-7.2,5.47l-5.42,12.18
	c0,0-7.33,13.16-10.88,11.44c-1.82-0.88,0.49-6.09,1.17-7.99c1.87-5.28,6.27-21.53,6.27-21.53"/>
<path id="E-mask" fill="none" stroke="#0000FF" stroke-width="7" stroke-miterlimit="10" d="M615.11,408.01c0,0-5.86,1.93-7.63,2.95
	c-3.3,1.91-8.97,7.25-12.42,8.86c-3.38,1.57-10.83,2.92-14.56,2.68c-2.15-0.14-8-4-7.77-4.09c2.95-1.2,1.78-12.61,1.78-12.61
	l6.89-6.15c0,0,5.54,0.58,6.15,2.09c0.75,1.86-3.69,7.13-3.69,7.13l-8.36,2.21"/>
<path id="E2-mask" fill="none" stroke="#0000FF" stroke-width="7" stroke-miterlimit="10" d="M618.31,408.63
	c0,0,5.69,1.16,7.26,0.25c1.73-1.01,4.59-5.34,3.69-7.13c-0.73-1.45-4.57-2.48-6.15-2.09c-1.13,0.28-3.08,1.75-3.81,2.64
	c-2.66,3.26-7.31,12.69-4.86,16.11c1.24,1.74,4.93,4.01,7.07,4.09c2.27,0.09,7.94-1.35,10.21-1.33c4.4,0.04,12.93-3.37,16.6-5.78
	c2.35-1.54,8.49-4.57,8.49-7.38"/>
<path id="S-mask" fill="none" stroke="#0000FF" stroke-width="8" stroke-miterlimit="10" d="M841.67,386.36l23.62-11.81l24.41-21.2
	c0,0,14.57-16.34,18.03-22.71c2.32-4.27,4.81-14.34,3.69-19.06c-1.09-4.59-8.89-11.52-13.16-13.53c-4.58-2.15-20.17-1.6-20.17-1.6
	s-17.18,2.33-22.75,3.81c-9.33,2.48-36.22,13.34-36.22,13.34l-33.59,17.78l-19.34,12.78l-27,22.85c0,0-17.74,19.89-22.04,27.6
	c-2.47,4.44-5.22,14.6-5.1,19.68c0.1,4.5,4.12,13.39,7.5,16.36c4.89,4.28,18.35,7.52,24.85,7.63c7.6,0.12,22.76-2.22,30.13-4.06
	c9.46-2.35,37.21-11.68,37.21-11.68l26.22-4.97l19.97-0.42c0,0,6.09,1.65,7.26,3.26c2.66,3.67,3.51,13.8,1.91,18.05
	c-1.55,4.09-7.7,10.71-10.88,13.71c-4.16,3.92-17.31,14.94-17.31,14.94l-22.54,12.12c0,0-9.9,4.47-13.1,3.38
	c-1.51-0.51-3.89-3.44-3.94-5.04c-0.06-2.36,4-8.55,4-8.55l15.74-12.92l22.69-14.39l16.74-9.19l25.14-12l9.78-4.06l14.03-5.38
	l10.38-1.72"/>
<path id="M-mask" fill="none" stroke="#0000FF" stroke-width="7" stroke-miterlimit="10" d="M907.5,411.5c0,0,22.12-12.91,19-17
	c-3.32-4.35-17.2,32.08-9,37c5,3,0.46-1.64,5-8c5-7-2,3.03,0,0c2.64-4,11.1-14.57,14.55-17.9c1.27-1.22,5.45-3.37,6.71-2.14
	c1.65,1.61-2.58,8.86-2.58,8.86s-4.17,5.62-2.89,7.01c1.54,1.67,8.67-2.77,8.67-2.77l9.54-8.06c0,0,4.2-6.04,5.83-5.04
	c2.77,1.7-3.32,12.55-3.32,12.55s-2.79,5.41-1.48,6.4c2.31,1.73,10.09-5.66,10.09-5.66l15.87-5.41l10.08-3.69"/>
<polyline id="I-mask" fill="none" stroke="#0000FF" stroke-width="7" stroke-miterlimit="10" points="997.02,404.94 988.53,419.7 
	989.76,425.48 996.28,424.49 1004.83,420.87 1022.11,413.42 1028.13,408.38 "/>
<polyline id="T-mask" fill="none" stroke="#0000FF" stroke-width="7" stroke-miterlimit="10" points="1033.08,404.94 
	1039.57,384.27 1050.71,368.53 1058.88,348.36 1020.93,425.48 1021.49,441.71 1034.16,439.38 1048.55,425.23 1069.09,407.4 "/>
<path id="H-mask" fill="none" stroke="#0000FF" stroke-width="7" stroke-miterlimit="10" d="M1069.5,407.5l16.2-18.43l11.19-20.67
	l13.16-25.7c0,0,4.04-8.98,2.34-11.32c-0.69-0.95-3.64-1.05-4.67-0.49c-2.61,1.41-7.63,9.1-7.63,9.1l-8.86,16.6l-11.99,27.4
	l-9.54,33.24c0,0-11.72,17.98-7.01,20.79c4.19,2.5,13.28-14.27,13.28-14.27s9.05-19.52,14.76-18.2c1.31,0.3,1.21,5.23,1.21,5.23
	s-1.13,7.37,0.63,8.61c0.99,0.7,4.67-1.29,4.67-1.29l11.01-7.5l8.61-2.58"/>
<path id="T-line-mask" fill="none" stroke="#0000FF" stroke-width="7" stroke-miterlimit="10" d="M1010.05,388.33l13.41-2.34
	l8.04-0.49c0,0,15.82-1.82,21.11-1.72c3.64,0.07,14.45,1.72,14.45,1.72"/>
<line id="I-dot-mask" fill="none" stroke="#0000FF" stroke-width="7" stroke-miterlimit="10" x1="1004.21" y1="390.3" x2="998.74" y2="398.29"/>
</svg>
